<svg xmlns="http://www.w3.org/2000/svg" height="24" viewBox="0 -960 960 960" width="24"><path d="M248.309-56.002q-41.827 0-70.067-28.24-28.241-28.24-28.241-70.067v-383.382q0-41.827 28.241-70.067 28.24-28.241 70.067-28.241h23.692v-80q0-87.922 60.728-148.96Q393.458-925.997 480-925.997q86.542 0 147.271 61.038 60.728 61.038 60.728 148.96v80h23.692q41.827 0 70.067 28.241 28.241 28.24 28.241 70.067v383.382q0 41.827-28.241 70.067-28.24 28.24-70.067 28.24H248.309ZM480.159-260q34.995 0 59.417-24.582 24.423-24.582 24.423-59.576 0-34.995-24.582-59.417-24.582-24.423-59.576-24.423-34.995 0-59.417 24.582-24.423 24.582-24.423 59.576 0 34.995 24.582 59.417 24.582 24.423 59.576 24.423ZM358-635.999h244v-80q0-51-35.618-87.5-35.617-36.5-86.5-36.5-50.882 0-86.382 36.5-35.5 36.5-35.5 87.5v80Z"/></svg>